<svg width="25" height="25" viewBox="0 0 25 25" fill="none" xmlns="http://www.w3.org/2000/svg">
<path d="M8.27028 2.55626C7.97736 2.84928 7.81281 3.24663 7.81281 3.66095C7.81281 4.07527 7.97736 4.47263 8.27028 4.76564L16.0047 12.5L8.27028 20.2344C7.98566 20.5291 7.82817 20.9238 7.83173 21.3335C7.83529 21.7431 7.99962 22.135 8.28932 22.4247C8.57902 22.7144 8.97091 22.8788 9.38059 22.8823C9.79028 22.8859 10.185 22.7284 10.4797 22.4438L19.3187 13.6047C19.6116 13.3117 19.7762 12.9143 19.7762 12.5C19.7762 12.0857 19.6116 11.6883 19.3187 11.3953L10.4797 2.55626C10.1866 2.26334 9.78929 2.09879 9.37497 2.09879C8.96065 2.09879 8.5633 2.26334 8.27028 2.55626Z" fill="white"/>
</svg>
