<svg width="12" height="21" viewBox="0 0 12 21" fill="none" xmlns="http://www.w3.org/2000/svg">
<path d="M0.457479 0.457479C0.164556 0.750491 0 1.14785 0 1.56217C0 1.97649 0.164556 2.37384 0.457479 2.66685L8.19185 10.4012L0.457479 18.1356C0.172857 18.4303 0.0153652 18.825 0.0189252 19.2347C0.0224853 19.6444 0.186812 20.0362 0.476512 20.3259C0.766212 20.6156 1.15811 20.78 1.56779 20.7835C1.97747 20.7871 2.37216 20.6296 2.66685 20.345L11.5059 11.5059C11.7988 11.2129 11.9634 10.8155 11.9634 10.4012C11.9634 9.98691 11.7988 9.58955 11.5059 9.29654L2.66685 0.457479C2.37384 0.164555 1.97649 0 1.56217 0C1.14785 0 0.750491 0.164555 0.457479 0.457479Z" fill="black"/>
</svg>
